<svg xmlns="http://www.w3.org/2000/svg" viewBox="0 0 86 86" fill="none">
  <rect width="86" height="86" rx="16" fill="white"/>
  <path d="M42.1493 70C41.7982 70 41.4606 69.9343 41.1365 69.8029C40.8124 69.6715 40.5018 69.4744 40.2047 69.2117C39.9886 69.0015 39.7996 68.7387 39.6375 68.4234C39.4755 68.108 39.3269 67.6744 39.1919 67.1226C39.0839 66.5445 38.9893 65.7562 38.9083 64.7577C38.8273 63.7591 38.7463 62.4584 38.6652 60.8555C38.6382 60.1985 38.6112 59.5679 38.5842 58.9635C38.5572 58.3591 38.5302 57.7679 38.5032 57.1898C38.4762 56.6905 38.4492 56.2044 38.4222 55.7314C38.4222 55.2321 38.4087 54.746 38.3817 54.273C38.3547 53.5898 38.3276 52.9328 38.3006 52.3022C38.3006 51.6715 38.2736 51.054 38.2196 50.4496C38.2196 50.2131 38.2061 49.9766 38.1791 49.7401C38.1791 49.5037 38.1791 49.2672 38.1791 49.0307C38.1791 48.7679 38.1656 48.5314 38.1386 48.3212C38.1386 48.0584 38.1251 47.8088 38.0981 47.5723C38.0981 47.3095 38.0846 47.0599 38.0576 46.8234C38.0576 46.5606 38.0441 46.3109 38.0171 46.0745C37.963 44.7606 37.8955 43.4204 37.8145 42.054C37.7605 40.6613 37.693 39.2029 37.6119 37.6788C37.5309 36.0759 37.1393 34.8146 36.4371 33.8949C35.7619 32.9752 34.9112 32.2526 33.8849 31.727C32.8586 31.1752 31.7647 30.6891 30.6034 30.2686C29.4691 29.8482 28.4023 29.3489 27.403 28.7708C26.4037 28.1927 25.58 27.4044 24.9318 26.4058C24.3106 25.381 24 24.0146 24 22.3066C24 20.8613 24.2296 19.6788 24.6887 18.7591C25.1478 17.8131 25.877 17.1168 26.8763 16.6701C27.9026 16.2234 29.2665 16 30.968 16C30.7249 18.7591 30.806 20.638 31.2111 21.6365C31.6432 22.6088 32.2644 23.0949 33.0746 23.0949C33.9659 23.0949 34.6411 22.6482 35.1002 21.7547C35.5593 20.835 35.8024 18.9431 35.8294 16.0788C36.5586 16.0788 37.3149 16.0788 38.0981 16.0788C38.8813 16.0788 39.6375 16.0788 40.3667 16.0788C40.2857 18.4175 40.2857 20.2175 40.3667 21.4788C40.4748 22.7139 40.7043 23.5679 41.0554 24.0409C41.4065 24.5139 41.9062 24.7504 42.5544 24.7504C43.1215 24.7504 43.6077 24.527 44.0128 24.0803C44.4449 23.6073 44.769 22.7533 44.9851 21.5182C45.2011 20.2832 45.3092 18.4963 45.3092 16.1577C48.9282 16.1577 51.8451 16.1971 54.0597 16.2759C56.2743 16.3285 57.9488 16.4599 59.0832 16.6701C60.2445 16.854 61.0142 17.1693 61.3923 17.6161C61.7974 18.0365 62 18.6277 62 19.3898C62 20.2044 61.6489 20.8219 60.9467 21.2423C60.2715 21.6365 59.3802 21.9387 58.2729 22.1489C57.1926 22.3328 56.0313 22.5168 54.7889 22.7007C53.5736 22.8584 52.3987 23.108 51.2644 23.4496C50.1571 23.765 49.2253 24.2642 48.4691 24.9474C47.7399 25.6307 47.3348 26.6029 47.2537 27.8642C46.7676 34.8803 46.3895 40.7796 46.1194 45.562C45.8493 50.3182 45.6198 54.2073 45.4307 57.2292C45.2687 60.2248 45.1201 62.5504 44.9851 64.2058C44.85 65.8613 44.688 67.0701 44.4989 67.8321C44.3099 68.5679 44.0668 69.0803 43.7697 69.3693C43.6077 69.5533 43.3646 69.7109 43.0405 69.8423C42.7434 69.9474 42.4463 70 42.1493 70ZM54.3028 35.3927C53.1414 35.3927 52.1016 35.0117 51.1834 34.2496C50.2921 33.4876 49.8465 32.3971 49.8465 30.9781C49.8465 29.5066 50.2516 28.3241 51.0618 27.4307C51.8721 26.5372 53.1414 26.0905 54.8699 26.0905C56.2203 26.0905 57.3141 26.5241 58.1514 27.3912C58.9886 28.2321 59.4073 29.2438 59.4073 30.4263C59.4073 32.1606 58.9886 33.4219 58.1514 34.2102C57.3412 34.9985 56.0583 35.3927 54.3028 35.3927ZM43.6077 61.092L43.3646 55.4161C46.5785 55.2847 49.0498 55.2321 50.7783 55.2584C52.5068 55.2847 53.6951 55.4817 54.3433 55.8496C55.0185 56.2175 55.3561 56.835 55.3561 57.7022C55.3561 58.7533 55.032 59.5022 54.3838 59.9489C53.7626 60.3693 52.6013 60.6453 50.8998 60.7766C49.2253 60.8817 46.7946 60.9869 43.6077 61.092ZM40.3667 39.6496L40.2857 45.6409C36.8017 45.6146 34.1144 45.5489 32.2239 45.4438C30.3333 45.3387 29.01 45.0628 28.2537 44.6161C27.5245 44.1431 27.1599 43.381 27.1599 42.3299C27.1599 41.2526 27.5785 40.5168 28.4158 40.1226C29.28 39.7022 30.6844 39.492 32.629 39.492C34.5736 39.4657 37.1528 39.5182 40.3667 39.6496Z" fill="black"/>
</svg>
