<svg width="119" height="119" viewBox="0 0 119 119" fill="none" xmlns="http://www.w3.org/2000/svg">
  <path d="M46.6846 21.3728C51.1747 19.8176 55.7954 19.1493 60.5469 19.3679C65.2984 19.5866 69.9092 20.8073 74.3789 23.03C78.7912 25.2242 82.5188 28.1496 85.5605 31.8064C88.6024 35.4634 90.8586 39.552 92.3281 44.071C93.8834 48.5612 94.523 53.1682 94.2471 57.8914C94.0284 62.6429 92.8357 67.1964 90.6699 71.5515C88.4471 76.0212 85.5075 79.7773 81.8506 82.8191C79.5929 84.7448 77.1536 86.3542 74.5342 87.6501L84.5762 92.6443L78.165 105.538L42.2344 87.6707C37.7646 85.4479 33.9942 82.536 30.9238 78.9363C27.8537 75.3367 25.5558 71.3347 24.0293 66.9304C22.5886 62.4973 22.0053 57.9191 22.2812 53.196C22.5572 48.4729 23.8075 43.8758 26.0303 39.406C28.196 35.0511 31.0783 31.3385 34.6777 28.2683C38.2774 25.198 42.2801 22.8993 46.6846 21.3728ZM59.8906 33.1931C57.0282 33.0562 54.2519 33.4635 51.5635 34.4138C48.8754 35.3641 46.4318 36.829 44.2324 38.8083C42.0614 40.7307 40.2917 43.0675 38.9238 45.8181C37.556 48.5687 36.7463 51.4184 36.4951 54.3669C36.3297 57.2866 36.665 60.1336 37.501 62.908C38.4228 65.6536 39.8021 68.127 41.6387 70.3269C43.5325 72.5552 45.8835 74.3681 48.6914 75.7644C51.3847 77.1037 54.1344 77.8269 56.9395 77.9353C59.8018 78.0721 62.5487 77.6514 65.1797 76.6726C67.8107 75.6938 70.2118 74.2433 72.3828 72.321C74.5824 70.3414 76.38 67.9473 77.7764 65.1394C79.1442 62.3887 79.9108 59.5533 80.0762 56.6335C80.3273 53.6851 80.0207 50.8525 79.1562 48.1355C78.349 45.4468 77.027 43.0024 75.1904 40.8025C73.3539 38.6026 71.0602 36.8188 68.3096 35.4509C65.5591 34.0832 62.7529 33.3301 59.8906 33.1931Z" fill="white"/>
</svg>
